<?xml version="1.0" standalone="no"?><!DOCTYPE svg PUBLIC "-//W3C//DTD SVG 1.1//EN" "http://www.w3.org/Graphics/SVG/1.1/DTD/svg11.dtd"><svg class="icon" width="24px" height="24.00px" viewBox="0 0 1024 1024" version="1.1" xmlns="http://www.w3.org/2000/svg"><path fill="#B8B8B8" d="M872.48 267.322H737.675l-44.935-89.87H333.26l-44.935 89.87H153.52c-49.508 0-89.87 40.22-89.87 89.836v426.951c0 49.563 40.237 89.836 89.87 89.836h718.96c49.508 0 89.87-40.22 89.87-89.836V357.158c0-49.565-40.237-89.836-89.87-89.836z m44.935 516.785c0 24.749-20.153 44.891-44.935 44.891H153.52c-24.782 0-44.935-20.142-44.935-44.891V357.159c0-24.771 20.153-44.913 44.935-44.913h162.571l44.935-89.87h303.948l44.935 89.87H872.48c24.782 0 44.935 20.142 44.935 44.913v426.948zM513 744.745c-105.305 0-190.974-85.679-190.974-190.974S407.695 362.798 513 362.798s190.974 85.679 190.974 190.974S618.305 744.745 513 744.745z m0-337.012c-80.523 0-146.039 65.516-146.039 146.039S432.477 699.81 513 699.81s146.039-65.516 146.039-146.039S593.523 407.733 513 407.733z" /></svg>